<?xml version="1.0" standalone="no"?>
<!DOCTYPE svg PUBLIC "-//W3C//DTD SVG 20010904//EN"
 "http://www.w3.org/TR/2001/REC-SVG-20010904/DTD/svg10.dtd">
<svg version="1.0" xmlns="http://www.w3.org/2000/svg"
 width="222.000000pt" height="222.000000pt" viewBox="0 0 222.000000 222.000000"
 preserveAspectRatio="xMidYMid meet">

<g transform="translate(0.000000,222.000000) scale(0.100000,-0.100000)"
fill="#000000" stroke="none">
<path d="M418 2027 c-156 -59 -241 -178 -241 -337 0 -99 28 -172 93 -241 l49
-52 -39 -38 c-79 -77 -118 -200 -99 -306 14 -74 63 -166 108 -204 l36 -29 -31
-25 c-77 -60 -132 -199 -119 -304 14 -126 107 -248 223 -291 47 -18 72 -21
142 -18 103 5 159 28 229 93 l50 46 40 -40 c22 -22 64 -53 93 -68 48 -25 62
-28 158 -28 96 0 110 2 159 28 29 16 72 48 95 72 l42 43 32 -39 c19 -22 60
-52 99 -71 61 -30 76 -33 158 -33 72 0 100 5 139 23 74 34 129 84 164 149 75
141 53 305 -54 413 l-44 46 49 51 c52 54 85 126 97 210 12 95 -43 235 -118
298 l-30 25 42 42 c23 23 54 65 68 93 24 45 27 61 27 155 0 96 -3 110 -28 158
-37 70 -97 128 -166 161 -47 22 -70 26 -146 26 -77 0 -98 -4 -147 -27 -31 -14
-77 -46 -101 -71 l-44 -44 -41 43 c-22 23 -64 55 -94 71 -48 26 -62 28 -158
28 -96 0 -110 -2 -159 -28 -29 -16 -71 -47 -93 -70 l-40 -42 -47 45 c-69 68
-129 93 -231 97 -55 2 -98 -1 -122 -10z m178 -229 c2 -3 2 -12 -2 -21 -4 -11
-17 -15 -47 -14 -36 2 -42 -1 -45 -20 -3 -17 3 -24 25 -29 54 -12 73 -31 73
-73 0 -21 -6 -43 -12 -49 -37 -29 -130 -21 -136 12 -3 15 3 18 35 16 58 -4 63
-2 63 24 0 18 -7 25 -32 30 -42 8 -68 33 -68 65 0 31 8 43 35 60 18 11 100 10
111 -1z m1162 4 c7 -5 10 -16 6 -26 -5 -14 -15 -17 -38 -13 -41 6 -56 0 -56
-23 0 -14 11 -22 39 -30 50 -13 63 -30 59 -77 -4 -49 -39 -68 -105 -58 -38 5
-44 9 -41 28 3 19 8 21 51 18 46 -2 48 -1 45 20 -2 17 -13 25 -38 32 -42 10
-60 31 -60 69 0 42 32 68 83 68 23 0 48 -4 55 -8z m-673 -52 c11 -27 22 -50
25 -50 3 0 14 23 24 50 15 41 22 50 42 50 13 0 24 -2 24 -4 0 -2 -16 -38 -35
-80 -19 -43 -35 -90 -35 -107 0 -22 -5 -29 -20 -29 -15 0 -20 7 -20 29 0 16
-16 63 -35 105 -19 43 -35 79 -35 82 0 2 10 4 23 4 18 0 27 -10 42 -50z m-130
-322 c45 24 60 27 155 27 95 0 110 -3 156 -27 l51 -27 43 44 43 44 42 -44 43
-43 -50 -52 c-73 -76 -92 -125 -93 -240 0 -115 18 -162 94 -241 l51 -53 -43
-43 -42 -42 -50 49 c-141 139 -353 139 -490 0 l-47 -48 -45 46 -45 45 31 24
c51 40 54 54 23 120 -23 49 -27 71 -27 143 1 71 5 95 28 144 30 64 29 69 -25
116 l-29 25 43 46 43 46 45 -43 45 -42 50 26z m-377 -204 c12 -4 22 -14 22
-25 0 -15 -9 -18 -52 -21 l-53 -3 0 -65 0 -65 33 -3 c31 -3 32 -2 32 33 0 32
3 36 23 33 19 -3 22 -10 25 -55 l3 -52 -45 -6 c-56 -9 -97 4 -113 36 -15 29
-17 118 -3 154 14 38 69 54 128 39z m1090 -82 l26 -73 27 73 c22 61 30 73 51
76 24 3 25 0 31 -65 4 -37 7 -87 7 -110 0 -39 -2 -43 -25 -43 -24 0 -25 3 -26
63 l-1 62 -17 -50 c-16 -44 -21 -50 -46 -50 -25 0 -31 6 -46 50 l-18 50 -1
-62 c0 -60 -1 -63 -25 -63 -24 0 -25 2 -25 64 0 35 3 84 6 110 6 43 9 47 32
44 21 -3 29 -14 50 -76z m71 -498 c21 -5 31 -12 31 -25 0 -15 -9 -19 -52 -21
l-53 -3 0 -65 0 -65 33 -3 c31 -3 32 -2 32 33 0 32 3 36 23 33 19 -3 22 -10
25 -54 3 -57 -4 -64 -81 -64 -59 0 -87 34 -87 107 0 82 8 103 44 119 36 15 43
16 85 8z m-1191 -116 c-3 -105 -4 -113 -23 -113 -19 0 -20 8 -23 113 l-3 112
26 0 26 0 -3 -112z m569 30 l42 -83 0 83 c1 75 3 82 21 82 19 0 20 -7 20 -110
l0 -110 -30 0 c-27 0 -33 7 -69 78 l-40 77 -1 -77 c0 -71 -2 -78 -20 -78 -19
0 -20 7 -20 110 l0 110 28 0 c25 0 32 -9 69 -82z"/>
</g>
</svg>
